# xmcd CD database file
#
# Track frame offsets:
#	150
#	19720
#	37215
#	55790
#	76479
#	95436
#	112383
#	135348
#	156899
#	176352
#	198381
#	215371
#
# Disc length: 3146 seconds
#
# Revision: 0
# Processed by: cddbd v1.5.1PL0 Copyright (c) Steve Scherf et al.
# Submitted via: CD2WAV32(JP) R3.22
#
DISCID=a10c480c
DTITLE=水樹奈々 - supersonic girl
DYEAR=2001
DGENRE=Pop
TTITLE0=Love’s Wonderland
TTITLE1=The place of happiness
TTITLE2=supersonic girl
TTITLE3=Heaven Knows〜Brave edit〜
TTITLE4=想い〜Pedigreed mix〜
TTITLE5=Look Away〜All together version〜
TTITLE6=TRANSMIGRATION
TTITLE7=LOOKING ON THE MOON
TTITLE8=真冬の観覧車
TTITLE9=NANA色のように〜Special album version〜
TTITLE10=水中の青空
TTITLE11=WINDOW OF HEART
EXTD=
EXTT0=
EXTT1=
EXTT2=
EXTT3=
EXTT4=
EXTT5=
EXTT6=
EXTT7=
EXTT8=
EXTT9=
EXTT10=
EXTT11=
PLAYORDER=
